<svg width="32" height="32" viewBox="0 0 32 32" fill="none" xmlns="http://www.w3.org/2000/svg">
<rect width="32" height="32" rx="8" fill="#513520"/>
<mask id="mask0_2710_2199" style="mask-type:luminance" maskUnits="userSpaceOnUse" x="2" y="7" width="26" height="18">
<path d="M27.7867 7.32202H2V24.6785H27.7867V7.32202Z" fill="white"/>
</mask>
<g mask="url(#mask0_2710_2199)">
<path d="M27.3941 -1.3407H2V33.3722H27.3941V-1.3407Z" fill="black"/>
</g>
<path d="M11.6321 20.52C11.3819 20.5513 11.0692 20.5513 10.7878 20.5513H8.72375V17.2676H10.6627C10.9754 17.2676 11.2569 17.2676 11.5696 17.2989C12.414 17.3614 13.0707 17.8618 13.0707 18.9251C13.0707 19.8945 12.3827 20.4575 11.6321 20.52ZM8.69248 12.1389H10.4125C10.7252 12.1389 11.0692 12.1701 11.3194 12.2014C12.1012 12.3265 12.6016 12.7331 12.6016 13.6087C12.6016 14.4843 12.1638 14.9222 11.3507 15.0472C11.1005 15.0785 10.7878 15.1098 10.475 15.1098H8.69248V12.1389ZM13.7274 15.8291C15.0409 15.3913 15.6976 14.4843 15.6976 13.2022C15.6976 11.4509 14.478 10.1687 12.3827 9.9185C11.7259 9.85596 11.3819 9.85596 10.6939 9.85596H5.72156V22.8967H10.6627C11.4445 22.8967 11.8823 22.8967 12.5078 22.8342C14.2591 22.6153 16.1667 21.4269 16.1667 18.9876C16.1667 17.3302 15.3849 16.2669 13.7274 15.8291Z" fill="white"/>
<path d="M23.464 21.0819C21.3061 21.0819 19.9614 19.3932 19.9614 16.4848C19.9614 13.5451 21.2749 11.8877 23.464 11.8877C25.6218 11.8877 26.9353 13.5451 26.9353 16.4848C26.9353 19.3932 25.6218 21.0819 23.464 21.0819ZM23.464 9.72986C19.4298 9.72986 16.8967 12.3881 16.8967 16.5161C16.8967 20.6441 19.3985 23.3023 23.464 23.3023C27.4982 23.3023 30 20.6441 30 16.5161C30 12.3568 27.4669 9.72986 23.464 9.72986Z" fill="#BD8D44"/>
</svg>
